<?xml version="1.0" encoding="UTF-8" standalone="no"?>
<!DOCTYPE svg PUBLIC "-//W3C//DTD SVG 1.1//EN"
 "http://www.w3.org/Graphics/SVG/1.1/DTD/svg11.dtd">
<!-- Generated by graphviz version 9.0.0 (20230911.1827)
 -->
<!-- Title: D Pages: 1 -->
<svg width="907pt" height="529pt"
 viewBox="0.00 0.00 906.61 528.50" xmlns="http://www.w3.org/2000/svg" xmlns:xlink="http://www.w3.org/1999/xlink">
<g id="graph0" class="graph" transform="scale(1 1) rotate(0) translate(4 524.5)">
<title>D</title>
<polygon fill="white" stroke="none" points="-4,4 -4,-524.5 902.61,-524.5 902.61,4 -4,4"/>
<!-- node_0 -->
<g id="node1" class="node">
<title>node_0</title>
<ellipse fill="none" stroke="black" cx="472.51" cy="-502.5" rx="51.86" ry="18"/>
<text text-anchor="middle" x="472.51" y="-497.45" font-family="Times,serif" font-size="14.00">source_file</text>
</g>
<!-- node_1 -->
<g id="node2" class="node">
<title>node_1</title>
<ellipse fill="none" stroke="black" cx="404.51" cy="-429.5" rx="93.32" ry="18"/>
<text text-anchor="middle" x="404.51" y="-424.45" font-family="Times,serif" font-size="14.00">assignment_statement</text>
</g>
<!-- node_0&#45;&gt;node_1 -->
<g id="edge1" class="edge">
<title>node_0&#45;&gt;node_1</title>
<path fill="none" stroke="black" d="M456.74,-485.03C448.36,-476.29 437.89,-465.36 428.53,-455.58"/>
<polygon fill="black" stroke="black" points="431.16,-453.27 421.71,-448.46 426.1,-458.11 431.16,-453.27"/>
</g>
<!-- node_33 -->
<g id="node19" class="node">
<title>node_33</title>
<ellipse fill="none" stroke="black" cx="570.51" cy="-429.5" rx="27" ry="18"/>
<text text-anchor="middle" x="570.51" y="-424.45" font-family="Times,serif" font-size="14.00">call</text>
</g>
<!-- node_0&#45;&gt;node_33 -->
<g id="edge2" class="edge">
<title>node_0&#45;&gt;node_33</title>
<path fill="none" stroke="black" d="M494.26,-485.74C508.83,-475.19 528.11,-461.22 543.64,-449.97"/>
<polygon fill="black" stroke="black" points="545.48,-452.96 551.52,-444.26 541.37,-447.29 545.48,-452.96"/>
</g>
<!-- node_2 -->
<g id="node3" class="node">
<title>node_2</title>
<ellipse fill="none" stroke="black" cx="314.51" cy="-341" rx="44.7" ry="18"/>
<text text-anchor="middle" x="314.51" y="-335.95" font-family="Times,serif" font-size="14.00">identifier</text>
</g>
<!-- node_1&#45;&gt;node_2 -->
<g id="edge3" class="edge">
<title>node_1&#45;&gt;node_2</title>
<path fill="none" stroke="black" d="M386.73,-411.41C373.07,-398.28 354.05,-380 338.96,-365.5"/>
<polygon fill="black" stroke="black" points="341.77,-363.34 332.13,-358.94 336.92,-368.39 341.77,-363.34"/>
<text text-anchor="middle" x="377.51" y="-380.2" font-family="Times,serif" font-size="14.00">left</text>
</g>
<!-- node_4 -->
<g id="node4" class="node">
<title>node_4</title>
<ellipse fill="none" stroke="black" cx="404.51" cy="-341" rx="27" ry="18"/>
<text text-anchor="middle" x="404.51" y="-335.95" font-family="Times,serif" font-size="14.00">call</text>
</g>
<!-- node_1&#45;&gt;node_4 -->
<g id="edge4" class="edge">
<title>node_1&#45;&gt;node_4</title>
<path fill="none" stroke="black" d="M404.51,-411.41C404.51,-399.76 404.51,-384.05 404.51,-370.52"/>
<polygon fill="black" stroke="black" points="408.01,-370.86 404.51,-360.86 401.01,-370.86 408.01,-370.86"/>
<text text-anchor="middle" x="417.26" y="-380.2" font-family="Times,serif" font-size="14.00">right</text>
</g>
<!-- node_5 -->
<g id="node5" class="node">
<title>node_5</title>
<ellipse fill="none" stroke="black" cx="279.51" cy="-252.5" rx="44.7" ry="18"/>
<text text-anchor="middle" x="279.51" y="-247.45" font-family="Times,serif" font-size="14.00">identifier</text>
</g>
<!-- node_4&#45;&gt;node_5 -->
<g id="edge5" class="edge">
<title>node_4&#45;&gt;node_5</title>
<path fill="none" stroke="black" d="M386.33,-327.42C366.46,-313.67 334.26,-291.38 310.4,-274.87"/>
<polygon fill="black" stroke="black" points="312.52,-272.09 302.31,-269.28 308.54,-277.85 312.52,-272.09"/>
<text text-anchor="middle" x="376.01" y="-291.7" font-family="Times,serif" font-size="14.00">function</text>
</g>
<!-- node_6 -->
<g id="node6" class="node">
<title>node_6</title>
<ellipse fill="none" stroke="black" cx="404.51" cy="-252.5" rx="62.1" ry="18"/>
<text text-anchor="middle" x="404.51" y="-247.45" font-family="Times,serif" font-size="14.00">argument_list</text>
</g>
<!-- node_4&#45;&gt;node_6 -->
<g id="edge6" class="edge">
<title>node_4&#45;&gt;node_6</title>
<path fill="none" stroke="black" d="M404.51,-322.91C404.51,-311.26 404.51,-295.55 404.51,-282.02"/>
<polygon fill="black" stroke="black" points="408.01,-282.36 404.51,-272.36 401.01,-282.36 408.01,-282.36"/>
<text text-anchor="middle" x="433.01" y="-291.7" font-family="Times,serif" font-size="14.00">arguments</text>
</g>
<!-- node_8 -->
<g id="node7" class="node">
<title>node_8</title>
<ellipse fill="none" stroke="black" cx="174.51" cy="-164" rx="99.97" ry="18"/>
<text text-anchor="middle" x="174.51" y="-158.95" font-family="Times,serif" font-size="14.00">permutation_expression</text>
</g>
<!-- node_6&#45;&gt;node_8 -->
<g id="edge7" class="edge">
<title>node_6&#45;&gt;node_8</title>
<path fill="none" stroke="black" d="M367.56,-237.6C329.51,-223.29 269.89,-200.87 226.97,-184.73"/>
<polygon fill="black" stroke="black" points="228.45,-181.55 217.85,-181.3 225.98,-188.1 228.45,-181.55"/>
</g>
<!-- node_18 -->
<g id="node12" class="node">
<title>node_18</title>
<ellipse fill="none" stroke="black" cx="404.51" cy="-164" rx="99.97" ry="18"/>
<text text-anchor="middle" x="404.51" y="-158.95" font-family="Times,serif" font-size="14.00">permutation_expression</text>
</g>
<!-- node_6&#45;&gt;node_18 -->
<g id="edge8" class="edge">
<title>node_6&#45;&gt;node_18</title>
<path fill="none" stroke="black" d="M404.51,-234.41C404.51,-222.76 404.51,-207.05 404.51,-193.52"/>
<polygon fill="black" stroke="black" points="408.01,-193.86 404.51,-183.86 401.01,-193.86 408.01,-193.86"/>
</g>
<!-- node_9 -->
<g id="node8" class="node">
<title>node_9</title>
<ellipse fill="none" stroke="black" cx="127.51" cy="-91" rx="124.03" ry="18"/>
<text text-anchor="middle" x="127.51" y="-85.95" font-family="Times,serif" font-size="14.00">permutation_cycle_expression</text>
</g>
<!-- node_8&#45;&gt;node_9 -->
<g id="edge9" class="edge">
<title>node_8&#45;&gt;node_9</title>
<path fill="none" stroke="black" d="M163.13,-145.81C157.7,-137.62 151.09,-127.62 145.04,-118.48"/>
<polygon fill="black" stroke="black" points="148.06,-116.7 139.62,-110.29 142.22,-120.56 148.06,-116.7"/>
</g>
<!-- node_11 -->
<g id="node9" class="node">
<title>node_11</title>
<ellipse fill="none" stroke="black" cx="36.51" cy="-18" rx="36.51" ry="18"/>
<text text-anchor="middle" x="36.51" y="-12.95" font-family="Times,serif" font-size="14.00">integer</text>
</g>
<!-- node_9&#45;&gt;node_11 -->
<g id="edge10" class="edge">
<title>node_9&#45;&gt;node_11</title>
<path fill="none" stroke="black" d="M105.48,-72.81C93,-63.08 77.28,-50.81 64,-40.45"/>
<polygon fill="black" stroke="black" points="66.49,-37.95 56.45,-34.56 62.19,-43.47 66.49,-37.95"/>
</g>
<!-- node_13 -->
<g id="node10" class="node">
<title>node_13</title>
<ellipse fill="none" stroke="black" cx="127.51" cy="-18" rx="36.51" ry="18"/>
<text text-anchor="middle" x="127.51" y="-12.95" font-family="Times,serif" font-size="14.00">integer</text>
</g>
<!-- node_9&#45;&gt;node_13 -->
<g id="edge11" class="edge">
<title>node_9&#45;&gt;node_13</title>
<path fill="none" stroke="black" d="M127.51,-72.81C127.51,-65.23 127.51,-56.1 127.51,-47.54"/>
<polygon fill="black" stroke="black" points="131.01,-47.54 127.51,-37.54 124.01,-47.54 131.01,-47.54"/>
</g>
<!-- node_15 -->
<g id="node11" class="node">
<title>node_15</title>
<ellipse fill="none" stroke="black" cx="218.51" cy="-18" rx="36.51" ry="18"/>
<text text-anchor="middle" x="218.51" y="-12.95" font-family="Times,serif" font-size="14.00">integer</text>
</g>
<!-- node_9&#45;&gt;node_15 -->
<g id="edge12" class="edge">
<title>node_9&#45;&gt;node_15</title>
<path fill="none" stroke="black" d="M149.54,-72.81C162.02,-63.08 177.74,-50.81 191.02,-40.45"/>
<polygon fill="black" stroke="black" points="192.83,-43.47 198.56,-34.56 188.53,-37.95 192.83,-43.47"/>
</g>
<!-- node_19 -->
<g id="node13" class="node">
<title>node_19</title>
<ellipse fill="none" stroke="black" cx="393.51" cy="-91" rx="124.03" ry="18"/>
<text text-anchor="middle" x="393.51" y="-85.95" font-family="Times,serif" font-size="14.00">permutation_cycle_expression</text>
</g>
<!-- node_18&#45;&gt;node_19 -->
<g id="edge13" class="edge">
<title>node_18&#45;&gt;node_19</title>
<path fill="none" stroke="black" d="M401.85,-145.81C400.66,-138.14 399.22,-128.89 397.88,-120.24"/>
<polygon fill="black" stroke="black" points="401.37,-119.87 396.38,-110.52 394.45,-120.94 401.37,-119.87"/>
</g>
<!-- node_25 -->
<g id="node16" class="node">
<title>node_25</title>
<ellipse fill="none" stroke="black" cx="659.51" cy="-91" rx="124.03" ry="18"/>
<text text-anchor="middle" x="659.51" y="-85.95" font-family="Times,serif" font-size="14.00">permutation_cycle_expression</text>
</g>
<!-- node_18&#45;&gt;node_25 -->
<g id="edge14" class="edge">
<title>node_18&#45;&gt;node_25</title>
<path fill="none" stroke="black" d="M457.35,-148.29C496.72,-137.33 550.75,-122.28 593.05,-110.5"/>
<polygon fill="black" stroke="black" points="593.94,-113.89 602.64,-107.84 592.06,-107.15 593.94,-113.89"/>
</g>
<!-- node_21 -->
<g id="node14" class="node">
<title>node_21</title>
<ellipse fill="none" stroke="black" cx="370.51" cy="-18" rx="36.51" ry="18"/>
<text text-anchor="middle" x="370.51" y="-12.95" font-family="Times,serif" font-size="14.00">integer</text>
</g>
<!-- node_19&#45;&gt;node_21 -->
<g id="edge15" class="edge">
<title>node_19&#45;&gt;node_21</title>
<path fill="none" stroke="black" d="M387.94,-72.81C385.43,-65.05 382.39,-55.68 379.56,-46.95"/>
<polygon fill="black" stroke="black" points="382.9,-45.9 376.49,-37.47 376.24,-48.06 382.9,-45.9"/>
</g>
<!-- node_23 -->
<g id="node15" class="node">
<title>node_23</title>
<ellipse fill="none" stroke="black" cx="461.51" cy="-18" rx="36.51" ry="18"/>
<text text-anchor="middle" x="461.51" y="-12.95" font-family="Times,serif" font-size="14.00">integer</text>
</g>
<!-- node_19&#45;&gt;node_23 -->
<g id="edge16" class="edge">
<title>node_19&#45;&gt;node_23</title>
<path fill="none" stroke="black" d="M409.97,-72.81C418.6,-63.8 429.32,-52.61 438.73,-42.78"/>
<polygon fill="black" stroke="black" points="441.16,-45.31 445.54,-35.67 436.1,-40.47 441.16,-45.31"/>
</g>
<!-- node_27 -->
<g id="node17" class="node">
<title>node_27</title>
<ellipse fill="none" stroke="black" cx="590.51" cy="-18" rx="36.51" ry="18"/>
<text text-anchor="middle" x="590.51" y="-12.95" font-family="Times,serif" font-size="14.00">integer</text>
</g>
<!-- node_25&#45;&gt;node_27 -->
<g id="edge17" class="edge">
<title>node_25&#45;&gt;node_27</title>
<path fill="none" stroke="black" d="M642.81,-72.81C634.05,-63.8 623.18,-52.61 613.62,-42.78"/>
<polygon fill="black" stroke="black" points="616.18,-40.39 606.7,-35.66 611.16,-45.27 616.18,-40.39"/>
</g>
<!-- node_29 -->
<g id="node18" class="node">
<title>node_29</title>
<ellipse fill="none" stroke="black" cx="681.51" cy="-18" rx="36.51" ry="18"/>
<text text-anchor="middle" x="681.51" y="-12.95" font-family="Times,serif" font-size="14.00">integer</text>
</g>
<!-- node_25&#45;&gt;node_29 -->
<g id="edge18" class="edge">
<title>node_25&#45;&gt;node_29</title>
<path fill="none" stroke="black" d="M664.83,-72.81C667.24,-65.05 670.14,-55.68 672.85,-46.95"/>
<polygon fill="black" stroke="black" points="676.17,-48.06 675.78,-37.47 669.48,-45.99 676.17,-48.06"/>
</g>
<!-- node_34 -->
<g id="node20" class="node">
<title>node_34</title>
<ellipse fill="none" stroke="black" cx="570.51" cy="-341" rx="44.7" ry="18"/>
<text text-anchor="middle" x="570.51" y="-335.95" font-family="Times,serif" font-size="14.00">identifier</text>
</g>
<!-- node_33&#45;&gt;node_34 -->
<g id="edge19" class="edge">
<title>node_33&#45;&gt;node_34</title>
<path fill="none" stroke="black" d="M570.51,-411.41C570.51,-399.76 570.51,-384.05 570.51,-370.52"/>
<polygon fill="black" stroke="black" points="574.01,-370.86 570.51,-360.86 567.01,-370.86 574.01,-370.86"/>
<text text-anchor="middle" x="593.01" y="-380.2" font-family="Times,serif" font-size="14.00">function</text>
</g>
<!-- node_35 -->
<g id="node21" class="node">
<title>node_35</title>
<ellipse fill="none" stroke="black" cx="709.51" cy="-341" rx="62.1" ry="18"/>
<text text-anchor="middle" x="709.51" y="-335.95" font-family="Times,serif" font-size="14.00">argument_list</text>
</g>
<!-- node_33&#45;&gt;node_35 -->
<g id="edge20" class="edge">
<title>node_33&#45;&gt;node_35</title>
<path fill="none" stroke="black" d="M589.84,-416.47C611.76,-402.83 647.95,-380.31 674.8,-363.6"/>
<polygon fill="black" stroke="black" points="676.3,-366.79 682.94,-358.53 672.6,-360.85 676.3,-366.79"/>
<text text-anchor="middle" x="681.01" y="-380.2" font-family="Times,serif" font-size="14.00">arguments</text>
</g>
<!-- node_37 -->
<g id="node22" class="node">
<title>node_37</title>
<ellipse fill="none" stroke="black" cx="709.51" cy="-252.5" rx="27" ry="18"/>
<text text-anchor="middle" x="709.51" y="-247.45" font-family="Times,serif" font-size="14.00">call</text>
</g>
<!-- node_35&#45;&gt;node_37 -->
<g id="edge21" class="edge">
<title>node_35&#45;&gt;node_37</title>
<path fill="none" stroke="black" d="M709.51,-322.91C709.51,-311.26 709.51,-295.55 709.51,-282.02"/>
<polygon fill="black" stroke="black" points="713.01,-282.36 709.51,-272.36 706.01,-282.36 713.01,-282.36"/>
</g>
<!-- node_44 -->
<g id="node26" class="node">
<title>node_44</title>
<ellipse fill="none" stroke="black" cx="799.51" cy="-252.5" rx="44.7" ry="18"/>
<text text-anchor="middle" x="799.51" y="-247.45" font-family="Times,serif" font-size="14.00">identifier</text>
</g>
<!-- node_35&#45;&gt;node_44 -->
<g id="edge22" class="edge">
<title>node_35&#45;&gt;node_44</title>
<path fill="none" stroke="black" d="M726.86,-323.32C740.48,-310.23 759.62,-291.84 774.83,-277.22"/>
<polygon fill="black" stroke="black" points="776.94,-280.04 781.73,-270.59 772.09,-275 776.94,-280.04"/>
</g>
<!-- node_38 -->
<g id="node23" class="node">
<title>node_38</title>
<ellipse fill="none" stroke="black" cx="709.51" cy="-164" rx="44.7" ry="18"/>
<text text-anchor="middle" x="709.51" y="-158.95" font-family="Times,serif" font-size="14.00">identifier</text>
</g>
<!-- node_37&#45;&gt;node_38 -->
<g id="edge23" class="edge">
<title>node_37&#45;&gt;node_38</title>
<path fill="none" stroke="black" d="M709.51,-234.41C709.51,-222.76 709.51,-207.05 709.51,-193.52"/>
<polygon fill="black" stroke="black" points="713.01,-193.86 709.51,-183.86 706.01,-193.86 713.01,-193.86"/>
<text text-anchor="middle" x="732.01" y="-203.2" font-family="Times,serif" font-size="14.00">function</text>
</g>
<!-- node_39 -->
<g id="node24" class="node">
<title>node_39</title>
<ellipse fill="none" stroke="black" cx="836.51" cy="-164" rx="62.1" ry="18"/>
<text text-anchor="middle" x="836.51" y="-158.95" font-family="Times,serif" font-size="14.00">argument_list</text>
</g>
<!-- node_37&#45;&gt;node_39 -->
<g id="edge24" class="edge">
<title>node_37&#45;&gt;node_39</title>
<path fill="none" stroke="black" d="M727.98,-238.92C747.81,-225.41 779.72,-203.68 803.81,-187.27"/>
<polygon fill="black" stroke="black" points="805.73,-190.2 812.02,-181.68 801.79,-184.41 805.73,-190.2"/>
<text text-anchor="middle" x="813.01" y="-203.2" font-family="Times,serif" font-size="14.00">arguments</text>
</g>
<!-- node_41 -->
<g id="node25" class="node">
<title>node_41</title>
<ellipse fill="none" stroke="black" cx="838.51" cy="-91" rx="36.51" ry="18"/>
<text text-anchor="middle" x="838.51" y="-85.95" font-family="Times,serif" font-size="14.00">integer</text>
</g>
<!-- node_39&#45;&gt;node_41 -->
<g id="edge25" class="edge">
<title>node_39&#45;&gt;node_41</title>
<path fill="none" stroke="black" d="M836.99,-145.81C837.21,-138.14 837.47,-128.89 837.71,-120.24"/>
<polygon fill="black" stroke="black" points="841.2,-120.64 837.99,-110.54 834.21,-120.44 841.2,-120.64"/>
</g>
</g>
</svg>
